<svg id="Layer_1" data-name="Layer 1" xmlns="http://www.w3.org/2000/svg" xmlns:xlink="http://www.w3.org/1999/xlink" viewBox="0 0 727.24 732.93"><defs><style>.cls-1{fill:url(#linear-gradient);}</style><linearGradient id="linear-gradient" x1="325.92" y1="540.46" x2="1324" y2="540.46" gradientUnits="userSpaceOnUse"><stop offset="0" stop-color="#ecceb6"/><stop offset="1" stop-color="#af8066"/></linearGradient></defs><title>Final</title><path class="cls-1" d="M1324,291.77h-96.09L981.6,531.3,964,526l297.69-290,3.16-3.08,59.2-57.61c-340.63-4-392.76,2.61-401.24,2.92-147.69,7.54-258.52,60.62-270.67,140.31-11.8,77.38,72.7,158.53,204.62,210.05l7.64,2.93L596.76,789.61h96.1L935.72,552.48l19.41,5.3-3.28,2.75L659.13,845.4,656,848.48l-59.2,57.61C934,909,989.52,903.48,998,903.16c147.69-7.53,258.53-60.62,270.68-140.31,11.8-77.37-72.71-158.53-204.63-210.05l-7.63-2.92ZM893.83,507.17c-2.66-.77-5.29-1.56-7.9-2.35-92.08-28.07-150.51-70.35-151.48-119.76-.26-13.61,4.38-26.8,13.32-39.39,28.28-39.84,99.66-73.5,195-94.3,66-14.05,145.21-22.29,234-22.29C1176.85,229.08,907.59,493.61,893.83,507.17Zm292.48,189.15c.27,13.6-4.37,26.8-13.31,39.38-28.28,39.85-99.66,73.51-195,94.31-66,14-145.21,22.29-234.06,22.29,0,0,269.26-264.54,283-278.09,2.67.77,5.3,1.56,7.91,2.35C1126.92,604.62,1185.34,646.91,1186.31,696.32Z" transform="translate(-596.76 -174)"/></svg>